<?xml version="1.0" encoding="UTF-8"?>
<svg width="91px" height="82px" viewBox="0 0 91 82" version="1.1" xmlns="http://www.w3.org/2000/svg" xmlns:xlink="http://www.w3.org/1999/xlink">
    <!-- Generator: Sketch 52.6 (67491) - http://www.bohemiancoding.com/sketch -->
    <title>Logo/android Copy 2</title>
    <desc>Created with Sketch.</desc>
    <g id="Logo/android-Copy-2" stroke="none" stroke-width="1" fill="none" fill-rule="evenodd">
        <g id="android-logomark" transform="translate(3.000000, 18.000000)" fill="#FFFFFF" fill-rule="nonzero">
            <path d="M64.105314,14.4890585 L71.2719807,2.20034105 C71.6718833,1.4967205 71.4268604,0.60527157 70.7221084,0.199780506 C70.0173563,-0.205710557 69.1145835,0.0253346773 68.6961353,0.718284666 L61.4463768,13.151091 C49.7407503,7.93645093 36.3423415,7.93645093 24.636715,13.151091 L17.3869565,0.718284666 C16.9685082,0.0253346773 16.0657355,-0.205710557 15.3609834,0.199780506 C14.6562314,0.60527157 14.4112085,1.4967205 14.8111111,2.20034105 L21.9777778,14.4890585 C9.6178744,21.117144 1.22560386,33.4470297 0,48 L86,48 C84.7743961,33.4470297 76.3613527,21.117144 64.105314,14.4890585 Z M23.2241546,35.8553713 C21.2508705,35.8553713 19.6512077,34.2702498 19.6512077,32.3149033 C19.6512077,30.3595568 21.2508705,28.7744353 23.2241546,28.7744353 C25.1974387,28.7744353 26.7971014,30.3595568 26.7971014,32.3149033 C26.7971014,34.2702498 25.1974387,35.8553713 23.2241546,35.8553713 Z M62.8173913,35.8553713 C60.8441072,35.8553713 59.2444444,34.2702498 59.2444444,32.3149033 C59.2444444,30.3595568 60.8441072,28.7744353 62.8173913,28.7744353 C64.7906754,28.7744353 66.3903382,30.3595568 66.3903382,32.3149033 C66.3903382,34.2702498 64.7906754,35.8553713 62.8173913,35.8553713 Z" id="Shape"></path>
        </g>
    </g>
</svg>