<?xml version="1.0" encoding="UTF-8"?>
<svg width="91px" height="82px" viewBox="0 0 91 82" version="1.1" xmlns="http://www.w3.org/2000/svg" xmlns:xlink="http://www.w3.org/1999/xlink">
    <!-- Generator: Sketch 52.6 (67491) - http://www.bohemiancoding.com/sketch -->
    <title>Logo/apple Copy 2</title>
    <desc>Created with Sketch.</desc>
    <g id="Logo/apple-Copy-2" stroke="none" stroke-width="1" fill="none" fill-rule="evenodd">
        <g id="apple-ios" transform="translate(6.000000, 16.000000)" fill="#FFFFFF" fill-rule="nonzero" stroke="#FFFFFF" stroke-width="3.5">
            <path d="M2.79587536,4.15078051 C2.79587536,5.03263604 2.25986519,5.68500284 1.34034715,5.68500284 C0.574618342,5.68500284 0,5.03263604 0,4.15078051 C0,3.30631359 0.612583048,2.61591354 1.41692003,2.61591354 C2.25986519,2.61591354 2.79587536,3.30631359 2.79587536,4.15078051 Z M0.676286537,50.2644758 L0.676286537,14.9902547 L2.11958882,14.9902547 L2.11958882,50.2644758 L0.676286537,50.2644758 Z M50.124994,25.1315933 C50.124994,42.9156797 40.2702572,51 29.4831331,51 C18.4637164,51 9.54008011,42.2555773 9.54008011,25.8671175 C9.54008011,9.03966378 18.7745122,0 30.2591574,0 C41.5108666,-0.00128926247 50.124994,8.89075397 50.124994,25.1315933 Z M11.0026865,25.4990331 C11.0026865,38.9834292 17.5261812,49.4586867 29.5513408,49.4586867 C41.6601515,49.4586867 48.6051188,38.6611136 48.6051188,25.3456108 C48.6051188,12.9976996 43.0403938,1.72890097 30.342165,1.72890097 C17.6439361,1.72890097 11.0026865,12.3388864 11.0026865,25.4990331 Z M55.4220356,46.4424572 C57.8434117,48.0591923 62.0227466,49.6204892 65.6171678,49.6204892 C72.4392323,49.6204892 78.5065071,44.8392593 78.5065071,37.8018201 C78.5065071,31.2710611 74.4648746,27.8635404 67.6029149,24.93627 C61.4616412,22.3164887 55.9400286,19.4730203 55.9400286,12.491664 C55.9400286,5.21700057 61.6611167,0.0715540669 69.4368032,0.0715540669 C73.6180686,0.0715540669 76.7723565,1.24736144 78.2394672,2.27619288 L77.6564838,3.54482715 C76.4094397,2.66361625 73.038946,1.54066865 69.3724563,1.54066865 C61.1547062,1.54066865 57.5750849,7.76136005 57.5750849,12.3408203 C57.5750849,18.665942 62.4693145,20.7809771 68.7778904,23.7939834 C76.1128002,27.3942489 80,30.5690577 80,37.4775706 C80,44.8998546 74.7190451,50.9245781 65.3295369,50.9245781 C61.4410501,50.9245781 56.9670061,49.6024395 54.7663401,47.9115718 L55.4220356,46.4424572 Z" id="Shape"></path>
        </g>
    </g>
</svg>