<?xml version="1.0" encoding="UTF-8"?>
<svg width="91px" height="82px" viewBox="0 0 91 82" version="1.1" xmlns="http://www.w3.org/2000/svg" xmlns:xlink="http://www.w3.org/1999/xlink">
    <!-- Generator: Sketch 52.6 (67491) - http://www.bohemiancoding.com/sketch -->
    <title>Logo/cmd Copy 2</title>
    <desc>Created with Sketch.</desc>
    <g id="Logo/cmd-Copy-2" stroke="none" stroke-width="1" fill="none" fill-rule="evenodd">
        <path d="M18,13 L74,13 C77.8659932,13 81,16.1340068 81,20 L81,62 C81,65.8659932 77.8659932,69 74,69 L18,69 C14.1340068,69 11,65.8659932 11,62 L11,20 C11,16.1340068 14.1340068,13 18,13 Z M27.4902702,53 C31.9984222,48.1590699 36.5063989,43.3187049 41,38.4932195 C36.4995617,33.6632136 31.9884294,28.8219069 27.4958802,24 C26.0123887,25.5898487 24.5141711,27.195707 23,28.8187049 C25.9980131,32.0379554 29.0035647,35.2649282 32.019635,38.5035786 C29.0105772,41.7346951 26.0050256,44.9622329 23.0052594,48.1835552 C24.5113661,49.8009028 26.0087072,51.4090212 27.4902702,53 Z M42,52 L60,52 L60,47 L42,47 L42,52 Z" id="Combined-Shape" fill="#FFFFFF"></path>
    </g>
</svg>