<?xml version="1.0" encoding="UTF-8"?>
<svg width="24px" height="18px" viewBox="0 0 24 18" version="1.1" xmlns="http://www.w3.org/2000/svg" xmlns:xlink="http://www.w3.org/1999/xlink">
    <!-- Generator: Sketch 52.6 (67491) - http://www.bohemiancoding.com/sketch -->
    <title>codecademy</title>
    <desc>Created with Sketch.</desc>
    <g id="Page-1" stroke="none" stroke-width="1" fill="none" fill-rule="evenodd">
        <g id="Desktop-HD-Copy-4" transform="translate(-233.000000, -757.000000)" fill="#FFFFFF">
            <g id="Slack" transform="translate(224.000000, 308.000000)">
                <g id="codecademy" transform="translate(9.000000, 449.000000)">
                    <path d="M23.8300661,15.9530402 L18.3182983,15.9530402 C18.2266818,15.9530402 18.1513198,16.0094798 18.1513198,16.115304 L18.1513198,17.540404 C18.1513198,17.6292964 18.2074719,17.7012568 18.319776,17.7012568 L23.8315438,17.7012568 C23.924638,17.7012568 24,17.6589271 24,17.5460479 L24,16.120948 C24,16.0221787 23.9438479,15.9657391 23.8300661,15.9657391 L23.8300661,15.9530402 Z M16.2176011,0.0479736615 C16.2323779,0.0804264325 16.2471548,0.112879204 16.264887,0.160852865 L16.264887,17.8349142 C16.264887,17.8913538 16.2456771,17.9252175 16.2279449,17.9435604 C16.189525,17.9802461 16.1540606,18 16.0949531,18 L0.150723946,18 C0.113781802,18 0.0768396587,18 0.0561520583,17.9802461 C0.0192099147,17.9435604 0,17.9096966 0,17.853257 L0,0.141099004 C0,0.0705495022 0.0384198294,0.0169318805 0.0945718877,0 L16.0949531,0 C16.133373,0 16.189525,0.0169318805 16.2087349,0.0338637611 L16.2087349,0.0479736615 L16.2176011,0.0479736615 Z M1.72869713,16.0925307 C1.72869713,16.1630802 1.76711696,16.2195198 1.82326901,16.2364517 L14.2772045,16.2364517 C14.3333565,16.2195198 14.3717764,16.1659022 14.3717764,16.0925307 L14.3717764,1.82318837 C14.3717764,1.75263887 14.3318788,1.69619927 14.2757268,1.67926739 L1.8247467,1.67926739 C1.76859464,1.69761026 1.73017481,1.74981689 1.73017481,1.82318837 L1.73017481,16.0925307 L1.72869713,16.0925307 Z M6.90187972,8.28185751 C7.54319534,8.28185751 7.95842503,8.51467087 8.3352349,8.93091293 C8.39138695,9.00146243 8.48595884,9.0198053 8.56132082,8.96477669 L9.58092398,8.09983979 C9.65480827,8.05751009 9.63707604,7.94463089 9.60013389,7.88819129 C8.97507282,7.16858636 8.06925146,6.71706955 6.90040204,6.71706955 C5.33405515,6.71706955 4.15190655,7.46489427 3.69382397,8.79122491 C3.53127854,9.25685163 3.45739425,9.84946745 3.45739425,10.6537318 C3.45739425,11.4579961 3.53127854,12.0506119 3.70860083,12.5162386 C4.16668341,13.8566792 5.34883201,14.590394 6.9151789,14.590394 C8.09732749,14.590394 8.9987158,14.1388772 9.61934381,13.4474921 C9.66367438,13.3769426 9.67845124,13.2922832 9.60456695,13.2358436 L8.58496379,12.3751396 C8.5110795,12.3328099 8.42241836,12.3328099 8.36331093,12.4033594 C7.97911263,12.8266564 7.58013748,13.0524148 6.92995575,13.0524148 C6.23544345,13.0524148 5.70347658,12.7278871 5.48182372,12.0788317 C5.34883201,11.7119743 5.31927829,11.2604575 5.31927829,10.6819516 C5.31927829,10.1034457 5.36360886,9.68014864 5.49660058,9.29918133 C5.7330303,8.67834571 6.25022031,8.353818 6.95950947,8.353818 L6.90187972,8.28185751 Z" id="Shape"></path>
                </g>
            </g>
        </g>
    </g>
</svg>