<?xml version="1.0" encoding="UTF-8"?>
<svg width="24px" height="24px" viewBox="0 0 24 24" version="1.1" xmlns="http://www.w3.org/2000/svg" xmlns:xlink="http://www.w3.org/1999/xlink">
    <!-- Generator: Sketch 52.6 (67491) - http://www.bohemiancoding.com/sketch -->
    <title>Shape</title>
    <desc>Created with Sketch.</desc>
    <g id="Page-1" stroke="none" stroke-width="1" fill="none" fill-rule="evenodd">
        <g id="Desktop-HD-Copy-4" transform="translate(-232.000000, -819.000000)" fill="#FFFFFF" fill-rule="nonzero">
            <g id="codewars" transform="translate(232.000000, 819.000000)">
                <path d="M0.7,12.075 L0.62,12.035 C0.44,11.935 0.3,11.785 0.2,11.595 C0.06,11.335 0,11.095 0,10.845 L0.02,10.715 C0.02,10.515 0.07,10.335 0.16,10.165 L0.24,10.015 C0.28,9.935 0.34,9.865 0.39,9.795 C0.45,9.725 0.46,9.635 0.44,9.555 L0.39,9.395 C0.33,9.195 0.29,8.995 0.29,8.795 L0.26,8.675 C0.26,8.455 0.32,8.235 0.46,8.075 L0.56,7.945 C0.63,7.845 0.74,7.785 0.86,7.745 C0.96,7.715 1.03,7.615 1.04,7.495 L1.06,7.155 C1.06,6.885 1.19,6.635 1.39,6.455 L1.63,6.275 C1.68,6.225 1.73,6.175 1.77,6.095 C1.82,6.035 1.83,5.955 1.82,5.895 C1.8,5.795 1.82,5.765 1.87,5.755 C2.03,5.815 2.13,5.795 2.2,5.715 L2.33,5.545 L2.69,5.145 C2.79552779,5.03219176 2.82666854,4.86870278 2.77,4.725 L2.65,4.465 C2.63,4.405 2.65,4.335 2.7,4.315 C2.83,4.315 2.92,4.365 2.96,4.445 L3,4.515 C3.06,4.635 3.2,4.695 3.3,4.645 C3.52,4.565 3.7,4.545 3.87,4.545 L4.19,4.545 C4.41,4.545 4.59,4.395 4.63,4.165 C4.67,3.885 4.77,3.665 4.91,3.515 C5.06,3.345 5.23,3.215 5.43,3.115 C5.69,2.975 5.85,2.775 5.9,2.515 C5.97,2.195 6.14,1.965 6.37,1.815 L7.13,1.385 L7.35,1.255 C7.48,1.175 7.6,1.075 7.7,0.955 L7.9,0.715 C8,0.615 8.1,0.545 8.22,0.515 C8.32,0.485 8.46,0.465 8.58,0.475 L8.98,0.505 C9.18,0.505 9.34,0.555 9.5,0.625 L9.6,0.675 C9.7,0.715 9.8,0.695 9.85,0.625 L9.94,0.575 L10.37,0.125 C10.47,0.025 10.59,-0.015 10.72,0.005 C10.85,0.025 10.98,0.075 11.1,0.135 C11.28,0.235 11.43,0.275 11.6,0.275 L11.7,0.275 C11.92,0.275 12.14,0.305 12.36,0.355 L12.51,0.395 C12.66,0.435 12.81,0.375 12.91,0.255 C12.94,0.205 13.01,0.195 13.05,0.235 C13.08,0.255 13.09,0.275 13.1,0.305 C13.12,0.505 13.24,0.655 13.4,0.705 L13.56,0.755 C13.7292997,0.805851022 13.8769897,0.911343871 13.98,1.055 C14.08,1.205 14.2,1.355 14.34,1.455 L14.44,1.555 C14.54,1.655 14.68,1.695 14.82,1.685 L15.41,1.685 C15.65,1.685 15.88,1.725 16.11,1.825 C16.33,1.925 16.56,1.945 16.77,1.865 C16.99,1.795 17.22,1.765 17.45,1.795 L17.88,1.865 C18.08,1.885 18.28,1.985 18.4,2.135 L18.45,2.185 C18.55,2.285 18.65,2.415 18.75,2.555 C18.81,2.685 18.95,2.755 19.09,2.755 L19.71,2.755 C19.86,2.755 20.01,2.785 20.13,2.855 C20.26,2.955 20.37,3.055 20.47,3.155 L20.57,3.285 C20.69,3.425 20.75,3.615 20.74,3.815 C20.74,3.975 20.86,4.115 21.02,4.115 L21.22,4.135 C21.36,4.135 21.48,4.235 21.55,4.365 L21.65,4.565 L21.91,5.145 C21.95,5.245 21.96,5.345 21.95,5.425 C21.95,5.525 21.98,5.605 22.05,5.645 L22.15,5.715 C22.28,5.815 22.35,5.965 22.33,6.135 L22.26,6.605 L22.24,6.805 C22.22,6.905 22.27,7.035 22.36,7.105 C22.51,7.205 22.58,7.335 22.59,7.485 L22.59,7.685 C22.59,7.785 22.57,7.905 22.49,7.985 C22.43,8.065 22.39,8.165 22.39,8.285 L22.42,8.515 C22.42,8.675 22.52,8.815 22.62,8.915 C22.76,9.015 22.84,9.175 22.86,9.335 C22.9,9.585 22.91,9.785 22.91,9.985 L22.91,10.215 C22.91,10.295 22.91,10.375 22.94,10.455 C22.96,10.525 23.01,10.595 23.07,10.635 L23.27,10.785 C23.47,10.915 23.61,11.085 23.69,11.315 C23.79,11.535 23.82,11.765 23.82,11.995 L23.82,12.075 C23.82,12.255 23.8,12.445 23.74,12.615 C23.6889246,12.7797766 23.6995888,12.9575126 23.77,13.115 C23.85,13.255 23.9,13.415 23.92,13.585 C23.96,13.785 23.94,13.985 23.87,14.145 L23.85,14.215 C23.8,14.335 23.72,14.445 23.62,14.535 C23.52,14.635 23.42,14.695 23.36,14.765 C23.3,14.825 23.26,14.925 23.29,15.015 L23.32,15.155 C23.37,15.355 23.37,15.555 23.32,15.735 L23.32,15.815 C23.28,15.965 23.22,16.095 23.16,16.215 C23.09,16.345 22.99,16.445 22.86,16.515 L22.71,16.615 C22.6349665,16.6629464 22.5896884,16.7459562 22.59,16.835 C22.59,16.935 22.55,17.035 22.49,17.095 L22.34,17.295 C22.24,17.425 22.11,17.535 21.97,17.595 C21.83,17.695 21.71,17.795 21.62,17.895 C21.52,18.015 21.44,18.155 21.4,18.295 C21.36,18.475 21.22,18.575 21.07,18.575 L20.53,18.575 C20.39,18.575 20.26,18.675 20.2,18.795 C20.13,18.955 20.06,19.065 19.97,19.165 C19.8730595,19.2654904 19.8041082,19.3896028 19.77,19.525 C19.75,19.645 19.65,19.725 19.55,19.685 C19.42,19.625 19.29,19.685 19.23,19.785 C19.11,19.985 18.99,20.135 18.86,20.265 L18.79,20.325 C18.66,20.425 18.49,20.505 18.34,20.505 C18.16,20.505 18.07,20.585 18.04,20.705 C18.01,20.805 17.99,20.935 17.98,21.045 C17.96,21.165 17.92,21.275 17.88,21.375 L17.83,21.435 C17.73,21.585 17.65,21.735 17.55,21.865 L17.51,21.925 C17.38,22.095 17.21,22.225 17.01,22.275 C16.7971555,22.3450715 16.5740486,22.3788756 16.35,22.375 L16.21,22.375 C16.11,22.375 16.01,22.435 15.94,22.535 L15.88,22.635 L15.82,22.755 L15.69,22.975 C15.59,23.155 15.44,23.275 15.24,23.335 C15.04,23.385 14.81,23.405 14.6,23.395 L14.44,23.375 C14.3,23.375 14.17,23.335 14.04,23.275 C13.94,23.235 13.8,23.275 13.74,23.375 C13.64,23.515 13.52,23.595 13.39,23.635 L13.09,23.735 C12.89,23.785 12.67,23.785 12.46,23.735 L12.3,23.685 C12.2,23.685 12.1,23.635 12.02,23.585 C11.927875,23.536498 11.8236931,23.5156616 11.72,23.525 L11.59,23.545 C11.39,23.565 11.21,23.545 11.03,23.495 L10.76,23.435 C10.6367487,23.3946905 10.5309261,23.3135598 10.46,23.205 C10.3982853,23.093688 10.286486,23.0191551 10.16,23.005 L9.84,23.005 C9.64,22.975 9.46,22.905 9.34,22.755 L8.94,22.375 L8.8,22.255 L8.58,22.095 L8.45,21.995 C8.3,21.895 8.12,21.815 7.93,21.795 L7.33,21.695 C7.27,21.695 7.23,21.675 7.17,21.665 L6.94,21.615 C6.84,21.595 6.74,21.515 6.67,21.415 C6.61,21.315 6.5,21.275 6.4,21.315 C6.2,21.395 6.04,21.415 5.88,21.445 L5.74,21.445 C5.48,21.465 5.24,21.425 5,21.315 C4.76,21.215 4.6,21.065 4.45,20.875 C4.33,20.705 4.15,20.575 3.93,20.535 L3.65,20.475 C3.45,20.435 3.25,20.355 3.07,20.235 C2.87,20.095 2.77,19.965 2.69,19.805 C2.61,19.655 2.56,19.485 2.55,19.305 L2.55,19.225 C2.53208054,19.023646 2.39352438,18.8534198 2.2,18.795 C1.97,18.725 1.8,18.625 1.65,18.495 C1.50793517,18.3595324 1.42829546,18.1712931 1.43,17.975 L1.45,17.535 C1.45,17.365 1.4,17.215 1.28,17.105 C1.1589839,16.9938343 1.08704876,16.8391738 1.08,16.675 L1.05,16.315 C1.02618721,16.0521208 0.982732505,15.7913926 0.92,15.535 C0.86,15.305 0.95,15.075 1.14,14.965 L1.21,14.915 C1.31,14.845 1.35,14.715 1.29,14.595 L1.21,14.495 C1.12775082,14.4049305 1.02477533,14.3362802 0.91,14.295 C0.83,14.275 0.81,14.195 0.81,14.145 L0.91,14.025 C0.97,13.955 0.96,13.845 0.91,13.785 C0.835361031,13.7096681 0.789379532,13.610631 0.78,13.505 L0.76,12.805 C0.76,12.665 0.78,12.525 0.82,12.385 C0.86,12.265 0.82,12.125 0.7,12.065 L0.7,12.075 Z M10.6,10.755 C10.67,10.685 10.66,10.555 10.6,10.505 C10.5074387,10.4298516 10.429477,10.3383314 10.37,10.235 L10.27,10.075 C10.2005067,9.94950934 10.1128989,9.8349452 10.01,9.735 L9.99,9.715 C9.89203222,9.63329598 9.81346781,9.53082067 9.76,9.415 C9.71,9.315 9.71,9.215 9.76,9.115 L9.82,9.015 C9.88,8.915 9.92,8.775 9.92,8.655 L9.92,8.615 C9.92,8.515 9.88,8.415 9.82,8.315 C9.78,8.235 9.74,8.135 9.72,8.035 L9.72,7.975 C9.69,7.855 9.72,7.725 9.8,7.625 C9.88,7.495 9.94,7.375 9.97,7.225 L9.97,7.205 C10.01,7.105 9.99,6.975 9.93,6.875 C9.87,6.775 9.85,6.675 9.89,6.555 L9.96,6.355 C10.02,6.175 10.11,6.015 10.23,5.875 L10.37,5.725 L10.47,5.605 L10.53,5.545 C10.59,5.485 10.6,5.385 10.55,5.305 C10.5,5.205 10.47,5.105 10.49,5.005 L10.51,4.865 C10.54,4.665 10.61,4.465 10.74,4.305 L10.78,4.265 C10.93,4.065 11.12,3.935 11.34,3.865 L11.61,3.765 C11.73,3.725 11.81,3.595 11.81,3.465 C11.81,3.305 11.86,3.165 11.95,3.035 L12,2.985 C12.1,2.815 12.22,2.645 12.3,2.465 L12.37,2.335 C12.39,2.305 12.4,2.265 12.4,2.235 C12.4,2.065 12.3,1.915 12.14,1.905 L11.7,1.875 C11.45,1.855 11.2,1.875 10.96,1.875 L10.11,1.975 C9.98,1.975 9.88,2.075 9.87,2.215 C9.87,2.355 9.77,2.475 9.65,2.515 L9.29,2.615 L9.19,2.645 L8.89,2.745 C8.67,2.815 8.49,2.975 8.39,3.195 L8.31,3.325 C8.21,3.545 8.04,3.725 7.83,3.855 C7.63,3.985 7.53,4.195 7.51,4.435 L7.51,4.535 C7.49,4.735 7.43,4.935 7.31,5.075 L7.26,5.155 C7.18,5.255 7.16,5.385 7.21,5.495 C7.26,5.615 7.29,5.745 7.28,5.875 L7.28,6.405 C7.28,6.545 7.18,6.665 7.08,6.705 C6.94,6.755 6.85,6.865 6.81,7.005 L6.76,7.205 C6.72,7.405 6.79,7.605 6.96,7.725 C7.12,7.845 7.22,8.025 7.26,8.245 L7.26,8.425 C7.29,8.625 7.4,8.825 7.58,8.925 C7.76,9.045 7.9,9.225 7.98,9.425 L8.03,9.585 C8.11,9.805 8.29,9.935 8.49,9.955 L8.55,9.955 C8.73,9.955 8.89,10.055 8.99,10.215 C9.09,10.375 9.25,10.485 9.43,10.515 L9.71,10.595 C9.88,10.645 10.04,10.735 10.17,10.865 L10.19,10.885 C10.29,10.965 10.45,10.955 10.54,10.845 L10.61,10.765 L10.6,10.755 Z M11.74,9.835 C11.84,9.895 11.94,9.865 11.98,9.775 L12.01,9.725 C12.08,9.585 12.17,9.445 12.27,9.325 L12.47,9.025 C12.5,9.025 12.51,9.005 12.52,8.985 L12.76,8.665 C12.86,8.565 12.98,8.495 13.12,8.495 C13.25,8.495 13.36,8.425 13.42,8.295 C13.46,8.155 13.52,8.025 13.64,7.915 L13.69,7.855 C13.79,7.755 13.89,7.705 13.99,7.655 C14.12,7.635 14.24,7.615 14.36,7.615 L14.66,7.615 C14.78,7.615 14.88,7.565 14.94,7.465 C15,7.365 15.09,7.295 15.19,7.245 L15.29,7.205 C15.45,7.135 15.63,7.085 15.81,7.065 L16.01,7.045 C16.13,7.045 16.26,7.045 16.38,7.115 C16.48,7.185 16.61,7.175 16.71,7.095 L16.78,7.055 C16.93,6.955 17.1,6.875 17.28,6.855 L17.3,6.855 C17.5,6.815 17.68,6.815 17.88,6.825 L17.98,6.825 C18.18,6.855 18.35,6.925 18.48,7.075 L18.51,7.115 C18.61,7.215 18.77,7.295 18.91,7.295 L19.08,7.295 C19.13,7.295 19.18,7.275 19.21,7.225 C19.24,7.195 19.29,7.165 19.34,7.165 L19.44,7.165 C19.58,7.165 19.71,7.205 19.84,7.245 L20.01,7.315 C20.17,7.365 20.34,7.415 20.51,7.435 L20.63,7.435 C20.71,7.435 20.76,7.385 20.76,7.315 C20.76,7.215 20.74,7.115 20.69,7.035 L20.62,6.875 C20.54,6.745 20.48,6.605 20.42,6.475 L20.4,6.425 C20.35,6.325 20.35,6.225 20.4,6.125 L20.4,6.075 C20.4213701,5.99270666 20.3786567,5.90727994 20.3,5.875 L20.22,5.875 C20.0619393,5.82856078 19.922181,5.73422392 19.82,5.605 L19.72,5.505 C19.62,5.405 19.56,5.255 19.52,5.105 C19.47,4.975 19.36,4.875 19.22,4.875 L18.8,4.875 C18.6519767,4.85475926 18.5184795,4.77538253 18.43,4.655 L18.39,4.605 C18.32,4.505 18.26,4.385 18.22,4.265 C18.17,4.165 18.06,4.105 17.96,4.135 L17.84,4.175 C17.64,4.245 17.44,4.275 17.24,4.255 L17.08,4.235 C16.91,4.235 16.75,4.165 16.62,4.065 L16.52,3.995 C16.44,3.935 16.36,3.895 16.27,3.855 C16.17,3.815 16.09,3.835 16.03,3.905 L15.98,3.965 C15.88,4.065 15.74,4.145 15.6,4.165 L15.06,4.195 C14.96,4.195 14.86,4.245 14.79,4.315 C14.71,4.385 14.62,4.435 14.52,4.455 L14.5,4.455 C14.4,4.455 14.3,4.525 14.2,4.595 L14.2,4.615 C14.1,4.715 13.97,4.765 13.84,4.765 L13.8,4.785 C13.68,4.785 13.56,4.785 13.44,4.815 L13.32,4.815 C13.15,4.845 13.02,4.985 12.98,5.165 L12.94,5.395 C12.9087763,5.55229644 12.8401809,5.69977666 12.74,5.825 C12.64,5.945 12.52,6.025 12.37,6.025 L12.2,6.025 C12.1,6.045 12,6.155 12.02,6.275 C12.04,6.445 12.02,6.595 11.99,6.745 L11.95,6.915 C11.91,7.065 11.81,7.185 11.68,7.235 L11.62,7.265 L11.6,7.265 C11.54,7.305 11.5,7.395 11.55,7.465 C11.61,7.565 11.63,7.665 11.62,7.765 L11.59,8.085 C11.59,8.205 11.54,8.315 11.49,8.415 C11.43,8.515 11.43,8.615 11.47,8.715 L11.57,8.935 C11.62,9.035 11.63,9.135 11.6,9.255 C11.57,9.355 11.55,9.455 11.56,9.555 C11.56,9.655 11.62,9.755 11.7,9.795 L11.72,9.815 L11.74,9.835 Z M19.64,17.065 C19.74,17.165 19.89,17.205 20.01,17.125 L20.21,16.995 C20.31,16.925 20.39,16.825 20.43,16.695 L20.43,16.675 L20.53,16.375 L20.59,16.275 L20.63,16.175 L20.67,16.105 C20.71,16.025 20.77,15.965 20.87,15.935 L20.91,15.915 C20.99,15.895 21.04,15.815 21.04,15.735 C21.04,15.635 21.09,15.555 21.14,15.485 L21.22,15.415 L21.42,15.155 L21.42,15.135 C21.48,15.055 21.52,14.965 21.54,14.865 C21.56,14.765 21.54,14.665 21.5,14.565 L21.48,14.525 C21.4440419,14.4422353 21.420456,14.3546306 21.41,14.265 L21.38,13.985 L21.35,13.685 C21.35,13.585 21.39,13.485 21.45,13.385 C21.5185834,13.3012483 21.572664,13.2066073 21.61,13.105 L21.61,13.065 L21.63,13.045 C21.65,12.945 21.6,12.845 21.51,12.845 C21.41,12.795 21.31,12.715 21.28,12.595 L21.25,12.535 C21.2,12.355 21.17,12.175 21.17,11.995 L21.19,11.495 L21.19,11.465 C21.19,11.3854351 21.1583929,11.3091289 21.102132,11.252868 C21.0458711,11.1966071 20.9695649,11.165 20.89,11.165 L20.87,11.165 C20.67,11.165 20.51,11.105 20.37,10.965 L20.29,10.865 L20.09,10.635 L19.83,10.335 C19.73,10.195 19.63,10.075 19.5,9.955 C19.4,9.855 19.25,9.755 19.1,9.735 L18.9,9.705 C18.8,9.685 18.67,9.635 18.56,9.565 C18.48,9.505 18.36,9.525 18.28,9.605 L18.15,9.745 L18.09,9.785 C18.02,9.805 17.95,9.765 17.92,9.685 C17.8765401,9.56061692 17.8837235,9.4241338 17.94,9.305 L17.94,9.245 C17.94,9.175 17.88,9.125 17.82,9.145 L17.66,9.145 C17.48,9.145 17.3,9.125 17.13,9.045 L17.03,9.005 C16.9273937,8.95391681 16.8146084,8.92657491 16.7,8.925 C16.6,8.925 16.5,8.945 16.4,9.005 L16.36,9.035 C16.24,9.115 16.1,9.155 15.96,9.165 L15.63,9.165 C15.48,9.165 15.33,9.215 15.23,9.295 C15.1,9.375 14.96,9.425 14.81,9.455 L14.54,9.495 C14.42,9.525 14.29,9.575 14.18,9.665 C14.08,9.765 13.94,9.825 13.81,9.865 L13.76,9.885 C13.5958981,9.9355618 13.4544879,10.0416194 13.36,10.185 L13.24,10.305 C13.1699808,10.400176 13.1699808,10.529824 13.24,10.625 C13.3,10.725 13.42,10.755 13.54,10.725 L13.69,10.665 C13.77,10.635 13.86,10.665 13.93,10.705 C13.99,10.755 14.08,10.785 14.17,10.775 L14.42,10.745 C14.56,10.745 14.7,10.745 14.84,10.785 C14.99,10.835 15.12,10.885 15.24,10.985 C15.36,11.085 15.49,11.125 15.64,11.145 C15.79,11.165 15.94,11.195 16.08,11.245 L16.18,11.265 C16.28,11.295 16.36,11.365 16.42,11.465 C16.47,11.545 16.52,11.665 16.52,11.765 L16.52,11.795 C16.52,11.915 16.62,11.995 16.72,11.995 L16.78,11.995 C16.94,11.995 17.11,12.015 17.28,12.065 L17.35,12.095 C17.45,12.135 17.55,12.195 17.62,12.295 C17.7,12.395 17.75,12.495 17.78,12.595 L17.81,12.735 C17.84,12.885 17.85,13.035 17.85,13.195 L17.85,13.245 C17.85,13.345 17.92,13.445 18.03,13.485 C18.13,13.505 18.25,13.545 18.36,13.605 L18.41,13.625 C18.54,13.705 18.67,13.805 18.77,13.925 L18.82,13.995 C18.95,14.145 19.02,14.335 19.02,14.525 L19.02,14.595 C19.02,14.745 18.99,14.895 18.94,15.035 C18.9,15.155 18.94,15.295 19.07,15.335 L19.14,15.385 C19.29,15.445 19.42,15.555 19.52,15.685 C19.62,15.835 19.66,16.005 19.66,16.185 L19.66,16.485 C19.64,16.585 19.61,16.665 19.56,16.735 C19.51,16.805 19.51,16.905 19.56,16.975 L19.62,17.075 L19.64,17.065 Z M13.24,11.945 L13.22,11.945 C13.18,11.945 13.16,11.995 13.17,12.045 L13.21,12.245 C13.25,12.405 13.27,12.565 13.29,12.725 C13.31,12.885 13.39,13.025 13.51,13.125 L13.55,13.125 C13.7,13.245 13.79,13.425 13.8,13.605 L13.8,14.105 C13.78,14.205 13.8,14.305 13.86,14.385 L13.91,14.435 C14.01,14.555 14.05,14.695 14.06,14.835 L14.09,15.385 C14.09,15.515 14.01,15.625 13.89,15.645 L13.79,15.665 C13.72,15.665 13.69,15.745 13.69,15.815 C13.69,15.895 13.72,15.985 13.75,16.065 L13.75,16.085 C13.78,16.185 13.79,16.285 13.78,16.385 L13.74,16.655 C13.7,16.855 13.64,17.035 13.54,17.215 L13.47,17.335 C13.4277939,17.4223124 13.3573124,17.4927939 13.27,17.535 C13.17,17.575 13.1,17.655 13.07,17.755 L12.99,18.115 C12.94,18.315 12.85,18.515 12.73,18.715 L12.71,18.715 C12.59,18.875 12.44,19.015 12.26,19.115 L12.14,19.195 L11.84,19.345 C11.74,19.385 11.68,19.475 11.66,19.585 L11.61,19.915 C11.58,20.115 11.51,20.285 11.37,20.415 L11.24,20.565 L11.09,20.715 L10.94,20.875 C10.82,21.015 10.64,21.075 10.44,21.045 L10.08,20.975 L9.75,20.935 L9.66,20.935 C9.62,20.975 9.61,21.035 9.64,21.095 C9.71,21.215 9.82,21.295 9.94,21.295 L10.16,21.335 C10.26,21.335 10.38,21.385 10.48,21.435 C10.58,21.505 10.68,21.555 10.8,21.585 L10.82,21.585 C10.95,21.635 11.09,21.645 11.22,21.635 L11.37,21.615 C11.54,21.595 11.7,21.615 11.84,21.675 L11.96,21.715 C12.01,21.735 12.09,21.715 12.14,21.665 C12.2,21.605 12.26,21.565 12.34,21.535 L12.42,21.515 C12.55,21.475 12.68,21.455 12.82,21.455 L12.9,21.455 C13.02,21.455 13.13,21.475 13.23,21.535 L13.27,21.555 C13.34,21.585 13.42,21.555 13.47,21.495 C13.5,21.425 13.57,21.355 13.64,21.295 L13.89,21.125 L14.05,21.025 L14.13,20.975 C14.23,20.905 14.37,20.875 14.49,20.875 L14.85,20.845 C14.99,20.825 15.11,20.725 15.15,20.585 C15.19,20.435 15.25,20.285 15.35,20.155 C15.45,20.025 15.55,19.915 15.65,19.815 C15.78,19.715 15.91,19.665 16.05,19.655 L16.13,19.655 C16.29,19.625 16.41,19.475 16.4,19.315 L16.4,18.645 C16.42,18.545 16.46,18.415 16.52,18.315 L16.72,18.015 L16.8,17.915 C16.86,17.865 16.9,17.795 16.97,17.715 L17.07,17.585 C17.1342439,17.485493 17.1261339,17.3557334 17.05,17.265 C16.95,17.165 16.9,17.025 16.88,16.885 L16.88,16.845 C16.86,16.685 16.86,16.515 16.91,16.345 L16.91,16.295 C16.96,16.165 17.03,16.035 17.11,15.915 C17.19,15.815 17.18,15.675 17.08,15.595 L16.91,15.445 C16.7727575,15.3206667 16.6871211,15.149394 16.67,14.965 L16.65,14.765 C16.65,14.705 16.65,14.635 16.63,14.565 L16.61,14.415 C16.5855987,14.2502115 16.4906912,14.1042 16.35,14.015 L16.28,13.995 C16.18,13.935 16.08,13.845 16,13.725 C15.92,13.625 15.88,13.485 15.85,13.345 L15.82,13.175 C15.82,13.115 15.78,13.075 15.72,13.045 L15.56,12.995 L15.24,12.895 C15.14,12.875 15.04,12.795 14.97,12.725 L14.95,12.725 C14.9259391,12.6896425 14.8873159,12.6669103 14.8447238,12.6630383 C14.8021317,12.6591663 14.7600424,12.674561 14.73,12.705 L14.63,12.805 C14.61,12.835 14.59,12.845 14.56,12.835 C14.5,12.835 14.46,12.785 14.48,12.735 C14.5022374,12.5747075 14.437471,12.4146962 14.31,12.315 L14.18,12.215 L13.88,12.015 C13.8,11.985 13.68,12.015 13.64,12.115 L13.6,12.175 C13.6,12.195 13.57,12.205 13.56,12.215 C13.52,12.215 13.46,12.215 13.46,12.165 L13.43,12.115 C13.4,12.055 13.33,12.015 13.27,11.995 L13.24,11.945 Z M12.04,12.945 L11.99,12.895 C11.94,12.855 11.89,12.865 11.84,12.915 C11.77,13.035 11.71,13.165 11.68,13.295 L11.68,13.315 C11.65,13.445 11.53,13.535 11.41,13.515 L11.29,13.515 C11.15,13.515 11.04,13.635 11.04,13.775 C11.04,13.955 10.98,14.135 10.87,14.275 L10.81,14.335 C10.71,14.465 10.56,14.555 10.41,14.605 L10.33,14.625 C10.23,14.655 10.15,14.725 10.13,14.845 C10.13,14.945 10.07,15.045 9.99,15.125 L9.89,15.205 C9.77,15.335 9.59,15.405 9.41,15.425 L8.91,15.475 C8.75,15.475 8.61,15.575 8.51,15.725 C8.41,15.875 8.26,15.975 8.11,15.995 L7.89,16.015 C7.73,16.035 7.56,16.035 7.39,15.995 L7.29,15.975 L7.02,15.905 C6.92,15.875 6.84,15.905 6.78,15.975 L6.68,16.105 C6.55625972,16.2496886 6.36939029,16.3244364 6.18,16.305 L5.53,16.225 C5.43,16.225 5.35,16.175 5.26,16.125 C5.16,16.065 5.09,15.995 5.02,15.925 L4.77,15.625 C4.74,15.605 4.69,15.595 4.64,15.605 L4.5,15.665 L3.94,15.805 C3.84,15.835 3.71,15.805 3.61,15.745 C3.51,15.665 3.39,15.645 3.27,15.645 L3.14,15.645 C3.02,15.675 2.94,15.805 2.98,15.925 L3.02,16.125 C3.05,16.225 3.04,16.345 2.99,16.445 C2.94,16.545 2.95,16.645 3.02,16.745 L3.08,16.825 C3.16,16.945 3.28,17.045 3.38,17.145 C3.48,17.245 3.58,17.345 3.66,17.475 L3.81,17.745 C3.89,17.885 4.01,17.965 4.17,17.965 C4.32,17.965 4.47,18.015 4.59,18.115 L4.89,18.395 C4.97,18.465 5.09,18.475 5.17,18.415 L5.22,18.395 C5.28,18.395 5.32,18.435 5.32,18.495 L5.32,18.545 C5.32,18.675 5.42,18.795 5.55,18.845 L6,18.945 C6.16,18.995 6.32,19.045 6.47,19.145 L6.55,19.145 C6.63,19.145 6.7,19.075 6.69,18.985 L6.69,18.635 C6.69,18.535 6.73,18.435 6.81,18.395 L6.86,18.375 C6.91,18.395 6.96,18.435 6.94,18.475 L6.94,18.645 C6.94,18.775 6.98,18.895 7.07,18.985 C7.17,19.085 7.3,19.105 7.41,19.065 C7.53,19.015 7.65,19.005 7.78,19.015 L8.15,19.035 C8.33,19.055 8.5,19.035 8.65,18.965 C8.83,18.905 8.98,18.825 9.12,18.715 L9.18,18.675 L9.48,18.405 C9.58,18.305 9.71,18.255 9.83,18.255 L10.23,18.255 C10.43,18.235 10.61,18.055 10.63,17.855 L10.67,17.655 C10.67,17.525 10.73,17.405 10.82,17.305 C10.92,17.205 11.02,17.145 11.12,17.105 L11.24,17.055 C11.41,16.985 11.54,16.835 11.6,16.655 L11.66,16.415 C11.71,16.215 11.81,16.015 11.96,15.885 L11.98,15.865 C12.1,15.765 12.12,15.565 12.04,15.425 L12.01,15.355 C11.9397862,15.240426 11.9286346,15.0991723 11.98,14.975 C12.03,14.835 12.08,14.715 12.16,14.595 L12.26,14.455 C12.3,14.375 12.3,14.255 12.24,14.185 C12.177749,14.1046702 12.1427205,14.0065906 12.14,13.905 L12.12,13.765 L12.12,13.425 C12.14,13.325 12.12,13.195 12.09,13.095 L12.05,12.975 L12.04,12.945 Z M10.61,12.185 L10.61,12.155 C10.61,12.055 10.55,11.995 10.47,11.995 L10.21,11.995 C10.11,12.015 10.01,12.015 9.93,11.995 L9.48,11.995 C9.25,11.995 9.03,11.955 8.81,11.895 L8.57,11.835 L8.37,11.775 L7.92,11.625 C7.68719743,11.5575321 7.49433163,11.3937781 7.39,11.175 L7.34,11.075 C7.27850792,10.9301064 7.12490583,10.8470782 6.97,10.875 C6.8,10.875 6.63,10.875 6.47,10.795 L6.35,10.745 C6.12,10.645 5.95,10.445 5.95,10.175 L5.91,9.905 C5.88,9.765 5.79,9.635 5.67,9.585 C5.53,9.525 5.4,9.445 5.27,9.355 L5.22,9.325 C5.06298133,9.20286303 4.94202221,9.04043221 4.87,8.855 L4.85,8.795 C4.79827925,8.63320177 4.79136768,8.46041235 4.83,8.295 L4.85,8.235 C4.89,8.105 4.9,7.975 4.9,7.835 C4.8987616,7.71082436 4.84842989,7.59218532 4.76,7.505 L4.62,7.375 C4.45843763,7.24500136 4.36017704,7.05211947 4.35,6.845 C4.33,6.625 4.33,6.415 4.37,6.205 L4.37,6.145 C4.37,6.03454305 4.28045695,5.945 4.17,5.945 L4.14,5.945 C4.01,5.945 3.9,6.025 3.84,6.145 C3.79,6.285 3.71,6.395 3.62,6.505 L3.58,6.555 L3.38,6.755 L3.28,6.855 C3.18,6.955 3.12,7.105 3.1,7.255 C3.08,7.405 3.04,7.555 2.98,7.695 L2.96,7.745 C2.91,7.865 2.83,7.975 2.73,8.045 C2.63,8.125 2.56,8.245 2.56,8.365 L2.54,8.825 C2.54,9.025 2.51,9.225 2.44,9.425 L2.42,9.505 C2.37,9.635 2.42,9.775 2.54,9.835 L2.96,10.015 L3,10.035 C3.03,10.035 3.04,10.055 3.05,10.085 C3.08,10.125 3.05,10.185 3.02,10.185 L2.92,10.235 C2.86,10.255 2.82,10.315 2.8,10.385 L2.78,10.485 L2.78,10.505 L2.68,11.065 C2.66,11.145 2.66,11.235 2.66,11.325 C2.66,11.405 2.71,11.475 2.78,11.505 L3,11.605 C3.1,11.665 3.22,11.735 3.3,11.805 L3.4,11.885 C3.43,11.925 3.48,11.965 3.52,11.985 L3.56,12.025 C3.63,12.085 3.68,12.165 3.7,12.255 L3.8,12.705 C3.8,12.825 3.9,12.925 4,12.955 L4.16,13.005 C4.16,13.005 4.19,13.005 4.21,13.025 L4.41,13.085 C4.57,13.135 4.71,13.225 4.83,13.345 C4.95,13.445 5.07,13.575 5.17,13.715 L5.21,13.755 C5.29,13.855 5.41,13.905 5.53,13.875 C5.65,13.845 5.78,13.835 5.91,13.835 L6.06,13.835 C6.16,13.835 6.29,13.865 6.4,13.935 C6.5,13.995 6.63,14.035 6.75,14.085 L6.78,14.085 C6.9,14.135 7.03,14.115 7.13,14.045 C7.23,13.965 7.36,13.925 7.49,13.925 L7.96,13.955 C8.06,13.955 8.16,13.935 8.21,13.855 L8.23,13.855 L8.4,13.695 L8.45,13.645 C8.53,13.545 8.65,13.505 8.77,13.495 L9.22,13.495 C9.34,13.495 9.45,13.395 9.5,13.295 C9.55,13.195 9.65,13.115 9.77,13.095 L9.97,13.055 C10.05,13.055 10.12,12.985 10.15,12.895 C10.18,12.795 10.23,12.715 10.3,12.655 L10.46,12.495 C10.56,12.395 10.61,12.295 10.63,12.175 L10.61,12.185 Z" id="Shape"></path>
            </g>
        </g>
    </g>
</svg>