<?xml version="1.0" encoding="UTF-8"?>
<svg width="91px" height="82px" viewBox="0 0 91 82" version="1.1" xmlns="http://www.w3.org/2000/svg" xmlns:xlink="http://www.w3.org/1999/xlink">
    <!-- Generator: Sketch 52.6 (67491) - http://www.bohemiancoding.com/sketch -->
    <title>Logo/github Copy 2</title>
    <desc>Created with Sketch.</desc>
    <g id="Logo/github-Copy-2" stroke="none" stroke-width="1" fill="none" fill-rule="evenodd">
        <path d="M8,42.3094429 C8,58.7929335 18.8268269,72.7753859 33.8433365,77.7087523 C35.7340294,78.0523015 36.4230304,76.9002666 36.4230304,75.9108449 C36.4230304,75.0267783 36.3905523,72.6791921 36.3719933,69.5666363 C25.8606686,71.8203191 23.6428742,64.56456 23.6428742,64.56456 C21.9238515,60.2541627 19.4462318,59.1067084 19.4462318,59.1067084 C16.0151461,56.7934772 19.7060571,56.8392837 19.7060571,56.8392837 C23.4990423,57.1026714 25.4941293,60.6847444 25.4941293,60.6847444 C28.8648984,66.3853708 34.3397884,64.7386249 36.4926265,63.7835582 C36.835967,61.3741331 37.8126317,59.7296776 38.8913706,58.7975141 C30.5004058,57.8561893 21.6779454,54.6543108 21.6779454,40.3580835 C21.6779454,36.2858803 23.151062,32.9534531 25.5683651,30.3470599 C25.1786272,29.4034447 23.8818206,25.6083712 25.9395441,20.4734559 C25.9395441,20.4734559 29.1108045,19.4702922 36.3302357,24.2983036 C39.343745,23.4692049 42.5776419,23.0569459 45.7906599,23.0409136 C49.0013581,23.0569459 52.2329351,23.4692049 55.2510842,24.2983036 C62.4658756,19.4702922 65.6324963,20.4734559 65.6324963,20.4734559 C67.6948595,25.6083712 66.3980529,29.4034447 66.0106349,30.3470599 C68.4325777,32.9534531 69.894095,36.2858803 69.894095,40.3580835 C69.894095,54.6909561 61.0577154,57.8447377 52.641232,58.7677399 C53.9960353,59.9197749 55.2046868,62.1963609 55.2046868,65.6776594 C55.2046868,70.6637035 55.1582895,74.6878097 55.1582895,75.9108449 C55.1582895,76.9094279 55.8403308,78.0706242 57.7565423,77.706462 C72.7614526,72.7616439 83.579,58.7883528 83.579,42.3094429 C83.579,21.703362 66.6578782,5 45.7860202,5 C24.9211218,5 8,21.703362 8,42.3094429 Z" id="Fill-4" fill="#FFFFFF"></path>
    </g>
</svg>