<?xml version="1.0" encoding="UTF-8"?>
<svg width="91px" height="82px" viewBox="0 0 91 82" version="1.1" xmlns="http://www.w3.org/2000/svg" xmlns:xlink="http://www.w3.org/1999/xlink">
    <!-- Generator: Sketch 52.6 (67491) - http://www.bohemiancoding.com/sketch -->
    <title>Logo/html Copy</title>
    <desc>Created with Sketch.</desc>
    <g id="Logo/html-Copy" stroke="none" stroke-width="1" fill="none" fill-rule="evenodd">
        <g id="Group-5" transform="translate(10.000000, 0.000000)" fill="#FFFFFF">
            <path d="M0,0 L72,0 L65.4383886,73.7935548 L35.9554234,82 L6.55377058,73.805512 L0,0 Z M12,36.1112259 L12,41.8890693 L35,52 L35,45.7198125 L18.6136276,38.9998524 L35,32.302914 L35,26 L12,36.1112259 Z M43,60 L44.3386881,59.9552727 C46.19876,59.8949497 47.7885577,59.2384589 49.1083633,57.9860946 C50.4276052,56.733436 51.0879307,54.967002 51.0879307,52.6870868 L51.0879307,45.644303 C51.0879307,43.7239718 51.5831043,42.2541504 52.5740154,41.2339561 C53.1255549,40.6639773 53.9341225,40.1990488 55,39.8388763 L55,37.1161021 C53.7083774,36.6064463 52.8115973,36.0511805 52.3105052,35.4511873 C51.4954555,34.4462944 51.0879307,32.8711284 51.0879307,30.7256895 L51.0879307,24.6954493 C51.0879307,23.8403339 50.9244698,22.8427975 50.5978299,21.7028399 C50.2709082,20.5628824 49.6863947,19.6027168 48.8442894,18.8223431 C48.0021842,18.0428523 47.0219827,17.5252515 45.9034031,17.2698351 C45.2247587,17.1050503 44.2566758,17.0150072 43,17 L43,20.6002532 C44.0909603,20.8700883 44.8589446,21.3047081 45.3042345,21.9038185 C45.7492426,22.5029289 45.9718876,23.6340587 45.9718876,25.2969137 L45.9718876,30.5108807 C45.9718876,32.4735852 46.2830268,34.0655238 46.9061509,35.2864025 C47.5289932,36.5075754 48.665328,37.5975091 50.3137462,38.5562034 C48.8037061,39.3206871 47.702318,40.2158215 47.0101458,41.241901 C46.3176918,42.2682748 45.9718876,43.8452063 45.9718876,45.972107 L45.9718876,51.6580647 C45.9465229,53.2906111 45.6145283,54.4820639 44.9750581,55.2312462 C44.5988163,55.6802847 43.9404636,56.0701772 43,56.4000411 L43,60 Z" id="Combined-Shape"></path>
        </g>
    </g>
</svg>