<?xml version="1.0" encoding="UTF-8"?>
<svg width="91px" height="82px" viewBox="0 0 91 82" version="1.1" xmlns="http://www.w3.org/2000/svg" xmlns:xlink="http://www.w3.org/1999/xlink">
    <!-- Generator: Sketch 52.6 (67491) - http://www.bohemiancoding.com/sketch -->
    <title>Logo/javascript Copy</title>
    <desc>Created with Sketch.</desc>
    <g id="Logo/javascript-Copy" stroke="none" stroke-width="1" fill="none" fill-rule="evenodd">
        <g id="javascript-js-seeklogo.com" transform="translate(13.000000, 9.000000)" fill="#FFFFFF">
            <path d="M0,0 L65,0 L65,65 L0,65 L0,0 Z M18.0001016,53.4271505 L18,53.4266356 C19.4176068,56.4744309 22.2103582,59 27.021485,59 C32.3486594,59 36,56.1262115 36,49.8125464 L36,29 L29.985812,29 L29.985812,49.7263668 C29.985812,52.7740589 28.7398824,53.5576042 26.7636645,53.5576042 C24.7020142,53.5576042 23.8425107,52.1209673 22.8976765,50.4230114 L18.0001016,53.4271505 Z M38,53.6398876 L38.000107,53.6398876 C39.852001,57.242626 43.6468025,60 49.5195367,60 C55.5277234,60 60,56.9314251 60,51.3270716 C60,46.1235251 56.9731535,43.8110246 51.5972558,41.5425908 L50.0162665,40.875491 C47.3060449,39.7190304 46.1314126,38.9627457 46.1314126,37.0946981 C46.1314126,35.5827593 47.3060449,34.4264041 49.1582593,34.4264041 C50.9651806,34.4264041 52.1393855,35.1823734 53.2236449,37.0946981 L58.1477856,33.9815307 C56.0699598,30.3788974 53.1787792,29 49.1581523,29 C43.5110297,29 39.8970804,32.5582512 39.8970804,37.2282652 C39.8970804,42.2986654 42.9239272,44.7003507 47.4868972,46.6124651 L49.067566,47.2800908 C51.9588536,48.525 53.675402,49.2811797 53.675402,51.4160464 C53.675402,53.1951193 52.0043605,54.4850419 49.3838706,54.4850419 C46.2669717,54.4850419 44.5051302,52.8840235 43.1495385,50.7044592 L38,53.6398876 Z" id="Combined-Shape"></path>
        </g>
    </g>
</svg>