<?xml version="1.0" encoding="UTF-8"?>
<svg width="91px" height="82px" viewBox="0 0 91 82" version="1.1" xmlns="http://www.w3.org/2000/svg" xmlns:xlink="http://www.w3.org/1999/xlink">
    <!-- Generator: Sketch 52.6 (67491) - http://www.bohemiancoding.com/sketch -->
    <title>Logo/php Copy 2</title>
    <desc>Created with Sketch.</desc>
    <g id="Logo/php-Copy-2" stroke="none" stroke-width="1" fill="none" fill-rule="evenodd">
        <g id="php-1" transform="translate(3.000000, 19.000000)" fill="#FFFFFF">
            <path d="M43,45 C19.2517558,45 -7.10542736e-15,34.9264069 -7.10542736e-15,22.5 C-7.10542736e-15,10.0735931 19.2517558,0 43,0 C66.7482442,0 86,10.0735931 86,22.5 C86,34.9264069 66.7482442,45 43,45 Z M13,35 L18.5830734,35 L19.7584749,28.8234702 L25.0469438,28.8234702 C30.0424841,29.1176865 35.6252223,25 35.6252223,17.9411567 C35.6252223,13.8231347 33.2744193,11.4704106 28.5731484,11.1761943 L17.7016061,11.1761943 L13,35 Z M20.9335413,24.4119028 L22.402877,15.5880972 L26.2226805,15.5880972 C28.2795494,15.5880972 29.7485499,16.4704106 29.7485499,18.2350376 C29.4549509,23.2353731 27.1041479,24.1176865 24.4597458,24.4119028 L20.9338764,24.4119028 L20.9335413,24.4119028 Z M34.5329402,28.8234702 L40.1160136,28.8234702 L42.7604156,15.5880972 L47.1680875,15.5880972 C49.2246212,15.5880972 49.2246212,16.4704106 48.9310222,17.9411567 L46.8741533,28.8234702 L52.7508257,28.8234702 L54.8076946,16.7646269 C55.3952278,13.8231347 53.6322931,11.4704106 48.930687,11.1761943 L43.6418829,11.1761943 L44.8172845,5 L39.2342111,5 L34.5329402,28.8234702 Z M52.3744425,35 L57.9571808,35 L59.1325823,28.8234702 L64.4217215,28.8234702 C69.4169266,29.1176865 75,25 75,17.9411567 C75,13.8231347 72.649197,11.4704106 67.9475909,11.1761943 L57.0757134,11.1761943 L52.3744425,35 Z M60.3076486,24.4119028 L61.7769843,15.5880972 L65.597123,15.5880972 C67.6539919,15.5880972 69.1229924,16.4704106 69.1229924,18.2350376 C68.8293934,23.2353731 66.4785904,24.1176865 63.8341883,24.4119028 L60.3079838,24.4119028 L60.3076486,24.4119028 Z" id="Combined-Shape"></path>
        </g>
    </g>
</svg>