<?xml version="1.0" encoding="UTF-8"?>
<svg width="91px" height="82px" viewBox="0 0 91 82" version="1.1" xmlns="http://www.w3.org/2000/svg" xmlns:xlink="http://www.w3.org/1999/xlink">
    <!-- Generator: Sketch 52.6 (67491) - http://www.bohemiancoding.com/sketch -->
    <title>Logo/python Copy</title>
    <desc>Created with Sketch.</desc>
    <g id="Logo/python-Copy" stroke="none" stroke-width="1" fill="none" fill-rule="evenodd">
        <g id="python-5" transform="translate(12.000000, 8.000000)" fill="#FFFFFF" fill-rule="nonzero">
            <path d="M33.4695067,0 C16.3528549,0 17.4215896,7.40627849 17.4215896,7.40627849 L17.4405987,15.0794096 L33.7747086,15.0794096 L33.7747086,17.3830875 L10.9529463,17.3830875 C10.9529463,17.3830875 0,16.1436587 0,33.375802 C0,50.6084721 9.5600006,49.9973191 9.5600006,49.9973191 L15.2653752,49.9973191 L15.2653752,42.0006984 C15.2653752,42.0006984 14.9577971,32.4619702 24.6727748,32.4619702 L40.8732928,32.4619702 C40.8732928,32.4619702 49.9752266,32.6086996 49.9752266,23.6848123 L49.9752266,8.92968267 C49.9752266,8.92968267 51.3576116,0 33.4695067,0 Z M24.4628825,5.16002785 C25.2424339,5.15932806 25.9902585,5.46800472 26.5414848,6.01800447 C27.0927111,6.56800423 27.4020762,7.3141648 27.4013748,8.0919816 C27.4020762,8.8697984 27.0927111,9.61595897 26.5414848,10.1659587 C25.9902585,10.7159585 25.2424339,11.0246351 24.4628825,11.0239353 C23.6833311,11.0246351 22.9355065,10.7159585 22.3842802,10.1659587 C21.8330539,9.61595897 21.5236889,8.8697984 21.5243902,8.0919816 C21.5236889,7.3141648 21.8330539,6.56800423 22.3842802,6.01800447 C22.9355065,5.46800472 23.6833311,5.15932806 24.4628825,5.16002785 Z" id="Shape"></path>
            <path d="M34.5307491,67 C51.6474051,67 50.5786701,59.5937215 50.5786701,59.5937215 L50.559661,51.9208539 L34.2252831,51.9208539 L34.2252831,49.617176 L57.047051,49.617176 C57.047051,49.617176 68,50.8566047 68,33.6239347 C68,16.391528 58.439997,17.002681 58.439997,17.002681 L52.7346211,17.002681 L52.7346211,24.9990382 C52.7346211,24.9990382 53.0421992,34.5377664 43.3272191,34.5377664 L27.1266971,34.5377664 C27.1266971,34.5377664 18.0247611,34.391037 18.0247611,43.3151877 L18.0247611,58.0705808 C18.0247611,58.0705808 16.6426398,67 34.5304851,67 L34.5307491,67 Z M43.5373755,61.840499 C42.7578239,61.8411988 42.0099991,61.5325221 41.4587727,60.9825224 C40.9075462,60.4325226 40.5981811,59.6863621 40.5988824,58.9085453 C40.5981109,58.1306828 40.9074451,57.3844545 41.4586792,56.8343978 C42.0099132,56.284341 42.7577781,55.9756282 43.5373755,55.9763281 C44.3169271,55.9756283 45.0647519,56.284305 45.6159783,56.8343047 C46.1672048,57.3843045 46.4765699,58.130465 46.4758685,58.9082818 C46.4765699,59.6860986 46.1672048,60.4322592 45.6159783,60.982259 C45.0647519,61.5322587 44.3169271,61.8409354 43.5373755,61.8402356 L43.5373755,61.840499 Z" id="Shape"></path>
        </g>
    </g>
</svg>