<?xml version="1.0" encoding="UTF-8"?>
<svg width="91px" height="82px" viewBox="0 0 91 82" version="1.1" xmlns="http://www.w3.org/2000/svg" xmlns:xlink="http://www.w3.org/1999/xlink">
    <!-- Generator: Sketch 52.6 (67491) - http://www.bohemiancoding.com/sketch -->
    <title>Logo/ruby Copy 2</title>
    <desc>Created with Sketch.</desc>
    <g id="Logo/ruby-Copy-2" stroke="none" stroke-width="1" fill="none" fill-rule="evenodd">
        <g id="Group-13" transform="translate(9.000000, 4.000000)" stroke="#8D37E3" stroke-width="2">
            <path d="M38.5960429,1.73965393 C38.5960429,1.73965393 56.9375588,0 63.0714979,0 C63.8576405,0 75.9156994,1.49376293 73.7371872,17.5483545 L70.0570709,70.1180083 L15.4514205,74 C15.4514205,74 -0.678219655,73.9922848 0.0221664598,57.202509 C0.250273864,51.72795 -0.142151568,40.4609251 2.0267223,37" id="Stroke-3" fill="#FFFFFF"></path>
            <path d="M46.0136678,3.94406132 C51.2278334,9.0472761 45.8227087,22.6114086 33.941121,34.240171 C22.0592811,45.8689335 8.20049792,51.1592908 2.98633225,46.0558291 C-2.22783343,40.9526144 3.17729129,27.3887287 15.058879,15.7599663 C26.9407189,4.130957 40.7995021,-1.15915345 46.0136678,3.94406132 Z" id="Stroke-1" fill="#FFFFFF"></path>
            <path d="M21,74 C21,74 27.6008549,71.6351955 36.1807603,66.1443617 C49.0389293,57.9158736 67.8096222,39.8309484 74,15" id="Stroke-5"></path>
            <path d="M65,38 L69,71" id="Stroke-7"></path>
            <polyline id="Stroke-9" stroke-linejoin="round" points="62.5078157 0 48.9180553 8.29353579 71 23.2595442 41.1893746 25.9997165 50.8636931 54.0762464 68.8995469 70 38 65.5434098"></polyline>
            <polyline id="Stroke-11" stroke-linecap="round" stroke-linejoin="bevel" points="0 61.6521801 5.24021337 47.2731944 14.4250447 74 24.0916401 43 51 54.031148"></polyline>
        </g>
    </g>
</svg>