<?xml version="1.0" encoding="UTF-8"?>
<svg width="31px" height="31px" viewBox="0 0 31 31" version="1.1" xmlns="http://www.w3.org/2000/svg" xmlns:xlink="http://www.w3.org/1999/xlink">
    <!-- Generator: Sketch 52.6 (67491) - http://www.bohemiancoding.com/sketch -->
    <title>Slack_Mark</title>
    <desc>Created with Sketch.</desc>
    <g id="Page-1" stroke="none" stroke-width="1" fill="none" fill-rule="evenodd">
        <g id="Desktop-HD-Copy-9" transform="translate(-233.000000, -318.000000)" fill="#FFFFFF">
            <g id="Slack" transform="translate(224.000000, 308.000000)">
                <g id="Slack_Mark" transform="translate(9.000000, 10.000000)">
                    <path d="M6.71186441,19.3559322 C6.71186441,21.1610169 5.23728814,22.6355932 3.43220339,22.6355932 C1.62711864,22.6355932 0.152542373,21.1610169 0.152542373,19.3559322 C0.152542373,17.5508475 1.62711864,16.0762712 3.43220339,16.0762712 L6.71186441,16.0762712 L6.71186441,19.3559322 Z" id="Path"></path>
                    <path d="M8.36440678,19.3559322 C8.36440678,17.5508475 9.83898305,16.0762712 11.6440678,16.0762712 C13.4491525,16.0762712 14.9237288,17.5508475 14.9237288,19.3559322 L14.9237288,27.5677966 C14.9237288,29.3728814 13.4491525,30.8474576 11.6440678,30.8474576 C9.83898305,30.8474576 8.36440678,29.3728814 8.36440678,27.5677966 L8.36440678,19.3559322 Z" id="Path"></path>
                    <path d="M11.6440678,6.71186441 C9.83898305,6.71186441 8.36440678,5.23728814 8.36440678,3.43220339 C8.36440678,1.62711864 9.83898305,0.152542373 11.6440678,0.152542373 C13.4491525,0.152542373 14.9237288,1.62711864 14.9237288,3.43220339 L14.9237288,6.71186441 L11.6440678,6.71186441 Z" id="Path"></path>
                    <path d="M11.6440678,8.36440678 C13.4491525,8.36440678 14.9237288,9.83898305 14.9237288,11.6440678 C14.9237288,13.4491525 13.4491525,14.9237288 11.6440678,14.9237288 L3.43220339,14.9237288 C1.62711864,14.9237288 0.152542373,13.4491525 0.152542373,11.6440678 C0.152542373,9.83898305 1.62711864,8.36440678 3.43220339,8.36440678 L11.6440678,8.36440678 Z" id="Path"></path>
                    <path d="M24.2881356,11.6440678 C24.2881356,9.83898305 25.7627119,8.36440678 27.5677966,8.36440678 C29.3728814,8.36440678 30.8474576,9.83898305 30.8474576,11.6440678 C30.8474576,13.4491525 29.3728814,14.9237288 27.5677966,14.9237288 L24.2881356,14.9237288 L24.2881356,11.6440678 Z" id="Path"></path>
                    <path d="M22.6355932,11.6440678 C22.6355932,13.4491525 21.1610169,14.9237288 19.3559322,14.9237288 C17.5508475,14.9237288 16.0762712,13.4491525 16.0762712,11.6440678 L16.0762712,3.43220339 C16.0762712,1.62711864 17.5508475,0.152542373 19.3559322,0.152542373 C21.1610169,0.152542373 22.6355932,1.62711864 22.6355932,3.43220339 L22.6355932,11.6440678 Z" id="Path"></path>
                    <path d="M19.3559322,24.2881356 C21.1610169,24.2881356 22.6355932,25.7627119 22.6355932,27.5677966 C22.6355932,29.3728814 21.1610169,30.8474576 19.3559322,30.8474576 C17.5508475,30.8474576 16.0762712,29.3728814 16.0762712,27.5677966 L16.0762712,24.2881356 L19.3559322,24.2881356 Z" id="Path"></path>
                    <path d="M19.3559322,22.6355932 C17.5508475,22.6355932 16.0762712,21.1610169 16.0762712,19.3559322 C16.0762712,17.5508475 17.5508475,16.0762712 19.3559322,16.0762712 L27.5677966,16.0762712 C29.3728814,16.0762712 30.8474576,17.5508475 30.8474576,19.3559322 C30.8474576,21.1610169 29.3728814,22.6355932 27.5677966,22.6355932 L19.3559322,22.6355932 Z" id="Path"></path>
                </g>
            </g>
        </g>
    </g>
</svg>